<?xml version="1.0" standalone="no"?>
<!DOCTYPE svg PUBLIC "-//W3C//DTD SVG 20010904//EN"
 "http://www.w3.org/TR/2001/REC-SVG-20010904/DTD/svg10.dtd">
<svg version="1.0" xmlns="http://www.w3.org/2000/svg"
 width="256.000000pt" height="256.000000pt" viewBox="0 0 256.000000 256.000000"
 preserveAspectRatio="xMidYMid meet">
<metadata>
Created by potrace 1.11, written by Peter Selinger 2001-2013
</metadata>
<g transform="translate(0.000000,256.000000) scale(0.100000,-0.100000)"
fill="#000000" stroke="none">
<path d="M945 2316 c-22 -7 -55 -21 -74 -30 -36 -19 -49 -19 -201 4 -73 11
-96 11 -162 -3 -208 -42 -327 -161 -383 -382 -16 -61 -19 -132 -22 -574 -4
-444 -2 -513 12 -580 45 -201 148 -303 309 -304 148 -1 235 91 270 284 10 54
-21 89 -80 89 -54 0 -78 -21 -88 -79 -16 -100 -125 -123 -163 -34 -12 29 -14
56 -9 113 11 121 11 120 66 120 61 0 162 31 220 68 l46 29 77 -391 c43 -215
78 -394 77 -398 0 -5 -9 -8 -20 -8 -51 0 -120 -61 -120 -106 0 -55 -7 -54 241
-54 171 0 229 3 229 12 0 6 7 129 16 272 22 377 23 377 254 336 77 -14 162 -6
244 22 74 24 112 18 153 -25 44 -46 51 -81 59 -278 l7 -177 -30 -6 c-75 -17
-120 -70 -108 -128 l7 -28 221 2 221 3 84 530 c46 292 86 546 89 565 l5 35 15
-29 c24 -45 20 -147 -6 -191 -26 -44 -26 -55 -3 -55 47 0 94 93 95 189 1 76
-22 129 -77 183 -28 27 -35 43 -41 93 -26 213 -145 394 -314 480 -106 53 -168
66 -347 72 l-161 6 -16 43 c-23 63 -82 148 -131 190 -116 100 -340 158 -461
120z m-270 -1115 c44 -41 46 -45 34 -68 -40 -74 -210 -153 -329 -153 l-45 1
61 29 c76 37 137 102 175 186 33 73 31 73 104 5z m-176 -10 c11 -7 10 -15 -9
-45 -19 -31 -89 -91 -96 -83 -2 1 2 23 7 47 16 70 59 106 98 81z"/>
</g>
</svg>
